<?xml version="1.0" encoding="UTF-8" standalone="no"?><svg xmlns="http://www.w3.org/2000/svg" xmlns:xlink="http://www.w3.org/1999/xlink" clip-rule="evenodd" stroke-miterlimit="10" viewBox="0 0 599 30"><desc>SVG generated by Keynote</desc><defs></defs><g transform="matrix(1.00, 0.00, -0.00, -1.00, 0.0, 30.0)"><text xml:space="preserve" font-family="Helvetica-Light,Helvetica" font-size="20.9" fill="#FEFFFF" transform="matrix(1.00, 0.00, -0.00, -1.00, 0.3, 9.3)">•</text><text xml:space="preserve" font-family="Helvetica-Light,Helvetica" font-size="27.8" fill="#FEFFFF" transform="matrix(1.00, 0.00, -0.00, -1.00, 25.9, 7.4)">A</text><text xml:space="preserve" font-family="Helvetica-Light,Helvetica" font-size="27.8" fill="#FEFFFF" transform="matrix(1.00, 0.00, -0.00, -1.00, 44.5, 7.4)">n</text><text xml:space="preserve" font-family="Helvetica-Light,Helvetica" font-size="27.8" fill="#FEFFFF" transform="matrix(1.00, 0.00, -0.00, -1.00, 60.0, 7.4)">a</text><text xml:space="preserve" font-family="Helvetica-Light,Helvetica" font-size="27.8" fill="#FEFFFF" transform="matrix(1.00, 0.00, -0.00, -1.00, 75.5, 7.4)">l</text><text xml:space="preserve" font-family="Helvetica-Light,Helvetica" font-size="27.8" fill="#FEFFFF" transform="matrix(1.00, 0.00, -0.00, -1.00, 81.6, 7.4)">y</text><text xml:space="preserve" font-family="Helvetica-Light,Helvetica" font-size="27.8" fill="#FEFFFF" transform="matrix(1.00, 0.00, -0.00, -1.00, 95.6, 7.4)">t</text><text xml:space="preserve" font-family="Helvetica-Light,Helvetica" font-size="27.8" fill="#FEFFFF" transform="matrix(1.00, 0.00, -0.00, -1.00, 103.3, 7.4)">i</text><text xml:space="preserve" font-family="Helvetica-Light,Helvetica" font-size="27.8" fill="#FEFFFF" transform="matrix(1.00, 0.00, -0.00, -1.00, 109.5, 7.4)">c</text><text xml:space="preserve" font-family="Helvetica-Light,Helvetica" font-size="27.8" fill="#FEFFFF" transform="matrix(1.00, 0.00, -0.00, -1.00, 125.0, 7.4)">a</text><text xml:space="preserve" font-family="Helvetica-Light,Helvetica" font-size="27.8" fill="#FEFFFF" transform="matrix(1.00, 0.00, -0.00, -1.00, 140.4, 7.4)">l</text><text xml:space="preserve" font-family="Helvetica-Light,Helvetica" font-size="27.8" fill="#FEFFFF" transform="matrix(1.00, 0.00, -0.00, -1.00, 146.6, 7.4)"> </text><text xml:space="preserve" font-family="Helvetica-Light,Helvetica" font-size="27.8" fill="#FEFFFF" transform="matrix(1.00, 0.00, -0.00, -1.00, 154.4, 7.4)">q</text><text xml:space="preserve" font-family="Helvetica-Light,Helvetica" font-size="27.8" fill="#FEFFFF" transform="matrix(1.00, 0.00, -0.00, -1.00, 171.4, 7.4)">u</text><text xml:space="preserve" font-family="Helvetica-Light,Helvetica" font-size="27.8" fill="#FEFFFF" transform="matrix(1.00, 0.00, -0.00, -1.00, 186.8, 7.4)">e</text><text xml:space="preserve" font-family="Helvetica-Light,Helvetica" font-size="27.8" fill="#FEFFFF" transform="matrix(1.00, 0.00, -0.00, -1.00, 202.3, 7.4)">r</text><text xml:space="preserve" font-family="Helvetica-Light,Helvetica" font-size="27.8" fill="#FEFFFF" transform="matrix(1.00, 0.00, -0.00, -1.00, 211.6, 7.4)">i</text><text xml:space="preserve" font-family="Helvetica-Light,Helvetica" font-size="27.8" fill="#FEFFFF" transform="matrix(1.00, 0.00, -0.00, -1.00, 217.8, 7.4)">e</text><text xml:space="preserve" font-family="Helvetica-Light,Helvetica" font-size="27.8" fill="#FEFFFF" transform="matrix(1.00, 0.00, -0.00, -1.00, 233.3, 7.4)">s</text><text xml:space="preserve" font-family="Helvetica-Light,Helvetica" font-size="27.8" fill="#FEFFFF" transform="matrix(1.00, 0.00, -0.00, -1.00, 247.2, 7.4)"> </text><text xml:space="preserve" font-family="Helvetica-Light,Helvetica" font-size="27.8" fill="#FEFFFF" transform="matrix(1.00, 0.00, -0.00, -1.00, 254.9, 7.4)">i</text><text xml:space="preserve" font-family="Helvetica-Light,Helvetica" font-size="27.8" fill="#FEFFFF" transform="matrix(1.00, 0.00, -0.00, -1.00, 261.1, 7.4)">n</text><text xml:space="preserve" font-family="Helvetica-Light,Helvetica" font-size="27.8" fill="#FEFFFF" transform="matrix(1.00, 0.00, -0.00, -1.00, 276.6, 7.4)"> </text><text xml:space="preserve" font-family="Helvetica-Light,Helvetica" font-size="27.8" fill="#FEFFFF" transform="matrix(1.00, 0.00, -0.00, -1.00, 284.3, 7.4)">a</text><text xml:space="preserve" font-family="Helvetica-Light,Helvetica" font-size="27.8" fill="#FEFFFF" transform="matrix(1.00, 0.00, -0.00, -1.00, 299.8, 7.4)">d</text><text xml:space="preserve" font-family="Helvetica-Light,Helvetica" font-size="27.8" fill="#FEFFFF" transform="matrix(1.00, 0.00, -0.00, -1.00, 316.8, 7.4)">d</text><text xml:space="preserve" font-family="Helvetica-Light,Helvetica" font-size="27.8" fill="#FEFFFF" transform="matrix(1.00, 0.00, -0.00, -1.00, 333.8, 7.4)">i</text><text xml:space="preserve" font-family="Helvetica-Light,Helvetica" font-size="27.8" fill="#FEFFFF" transform="matrix(1.00, 0.00, -0.00, -1.00, 340.0, 7.4)">t</text><text xml:space="preserve" font-family="Helvetica-Light,Helvetica" font-size="27.8" fill="#FEFFFF" transform="matrix(1.00, 0.00, -0.00, -1.00, 347.7, 7.4)">i</text><text xml:space="preserve" font-family="Helvetica-Light,Helvetica" font-size="27.8" fill="#FEFFFF" transform="matrix(1.00, 0.00, -0.00, -1.00, 353.9, 7.4)">o</text><text xml:space="preserve" font-family="Helvetica-Light,Helvetica" font-size="27.8" fill="#FEFFFF" transform="matrix(1.00, 0.00, -0.00, -1.00, 369.4, 7.4)">n</text><text xml:space="preserve" font-family="Helvetica-Light,Helvetica" font-size="27.8" fill="#FEFFFF" transform="matrix(1.00, 0.00, -0.00, -1.00, 384.9, 7.4)"> </text><text xml:space="preserve" font-family="Helvetica-Light,Helvetica" font-size="27.8" fill="#FEFFFF" transform="matrix(1.00, 0.00, -0.00, -1.00, 392.6, 7.4)">t</text><text xml:space="preserve" font-family="Helvetica-Light,Helvetica" font-size="27.8" fill="#FEFFFF" transform="matrix(1.00, 0.00, -0.00, -1.00, 400.3, 7.4)">o</text><text xml:space="preserve" font-family="Helvetica-Light,Helvetica" font-size="27.8" fill="#FEFFFF" transform="matrix(1.00, 0.00, -0.00, -1.00, 415.8, 7.4)"> </text><text xml:space="preserve" font-family="Helvetica-Light,Helvetica" font-size="27.8" fill="#FEFFFF" transform="matrix(1.00, 0.00, -0.00, -1.00, 423.6, 7.4)">t</text><text xml:space="preserve" font-family="Helvetica-Light,Helvetica" font-size="27.8" fill="#FEFFFF" transform="matrix(1.00, 0.00, -0.00, -1.00, 431.3, 7.4)">e</text><text xml:space="preserve" font-family="Helvetica-Light,Helvetica" font-size="27.8" fill="#FEFFFF" transform="matrix(1.00, 0.00, -0.00, -1.00, 446.8, 7.4)">x</text><text xml:space="preserve" font-family="Helvetica-Light,Helvetica" font-size="27.8" fill="#FEFFFF" transform="matrix(1.00, 0.00, -0.00, -1.00, 460.7, 7.4)">t</text><text xml:space="preserve" font-family="Helvetica-Light,Helvetica" font-size="27.8" fill="#FEFFFF" transform="matrix(1.00, 0.00, -0.00, -1.00, 468.4, 7.4)"> </text><text xml:space="preserve" font-family="Helvetica-Light,Helvetica" font-size="27.8" fill="#FEFFFF" transform="matrix(1.00, 0.00, -0.00, -1.00, 476.2, 7.4)">s</text><text xml:space="preserve" font-family="Helvetica-Light,Helvetica" font-size="27.8" fill="#FEFFFF" transform="matrix(1.00, 0.00, -0.00, -1.00, 490.1, 7.4)">e</text><text xml:space="preserve" font-family="Helvetica-Light,Helvetica" font-size="27.8" fill="#FEFFFF" transform="matrix(1.00, 0.00, -0.00, -1.00, 505.6, 7.4)">a</text><text xml:space="preserve" font-family="Helvetica-Light,Helvetica" font-size="27.8" fill="#FEFFFF" transform="matrix(1.00, 0.00, -0.00, -1.00, 521.1, 7.4)">r</text><text xml:space="preserve" font-family="Helvetica-Light,Helvetica" font-size="27.8" fill="#FEFFFF" transform="matrix(1.00, 0.00, -0.00, -1.00, 529.8, 7.4)">c</text><text xml:space="preserve" font-family="Helvetica-Light,Helvetica" font-size="27.8" fill="#FEFFFF" transform="matrix(1.00, 0.00, -0.00, -1.00, 545.3, 7.4)">h</text><text xml:space="preserve" font-family="Helvetica-Light,Helvetica" font-size="27.8" fill="#FEFFFF" transform="matrix(1.00, 0.00, -0.00, -1.00, 560.8, 7.4)">i</text><text xml:space="preserve" font-family="Helvetica-Light,Helvetica" font-size="27.8" fill="#FEFFFF" transform="matrix(1.00, 0.00, -0.00, -1.00, 567.0, 7.4)">n</text><text xml:space="preserve" font-family="Helvetica-Light,Helvetica" font-size="27.8" fill="#FEFFFF" transform="matrix(1.00, 0.00, -0.00, -1.00, 582.4, 7.4)">g</text></g></svg>