<?xml version="1.0" encoding="UTF-8" standalone="no"?><svg xmlns="http://www.w3.org/2000/svg" xmlns:xlink="http://www.w3.org/1999/xlink" clip-rule="evenodd" stroke-miterlimit="10" viewBox="0 0 441 30"><desc>SVG generated by Keynote</desc><defs></defs><g transform="matrix(1.00, 0.00, -0.00, -1.00, 0.0, 30.0)"><text xml:space="preserve" font-family="Helvetica-Light,Helvetica" font-size="20.9" fill="#FEFFFF" transform="matrix(1.00, 0.00, -0.00, -1.00, 0.3, 9.3)">•</text><text xml:space="preserve" font-family="Helvetica-Light,Helvetica" font-size="27.8" fill="#FEFFFF" transform="matrix(1.00, 0.00, -0.00, -1.00, 25.9, 7.4)">A</text><text xml:space="preserve" font-family="Helvetica-Light,Helvetica" font-size="27.8" fill="#FEFFFF" transform="matrix(1.00, 0.00, -0.00, -1.00, 44.5, 7.4)">n</text><text xml:space="preserve" font-family="Helvetica-Light,Helvetica" font-size="27.8" fill="#FEFFFF" transform="matrix(1.00, 0.00, -0.00, -1.00, 60.0, 7.4)">d</text><text xml:space="preserve" font-family="Helvetica-Light,Helvetica" font-size="27.8" fill="#FEFFFF" transform="matrix(1.00, 0.00, -0.00, -1.00, 77.0, 7.4)">,</text><text xml:space="preserve" font-family="Helvetica-Light,Helvetica" font-size="27.8" fill="#FEFFFF" transform="matrix(1.00, 0.00, -0.00, -1.00, 84.7, 7.4)"> </text><text xml:space="preserve" font-family="Helvetica-Light,Helvetica" font-size="27.8" fill="#FEFFFF" transform="matrix(1.00, 0.00, -0.00, -1.00, 92.5, 7.4)">m</text><text xml:space="preserve" font-family="Helvetica-Light,Helvetica" font-size="27.8" fill="#FEFFFF" transform="matrix(1.00, 0.00, -0.00, -1.00, 115.7, 7.4)">a</text><text xml:space="preserve" font-family="Helvetica-Light,Helvetica" font-size="27.8" fill="#FEFFFF" transform="matrix(1.00, 0.00, -0.00, -1.00, 131.1, 7.4)">n</text><text xml:space="preserve" font-family="Helvetica-Light,Helvetica" font-size="27.8" fill="#FEFFFF" transform="matrix(1.00, 0.00, -0.00, -1.00, 146.6, 7.4)">y</text><text xml:space="preserve" font-family="Helvetica-Light,Helvetica" font-size="27.8" fill="#FEFFFF" transform="matrix(1.00, 0.00, -0.00, -1.00, 160.5, 7.4)"> </text><text xml:space="preserve" font-family="Helvetica-Light,Helvetica" font-size="27.8" fill="#FEFFFF" transform="matrix(1.00, 0.00, -0.00, -1.00, 168.3, 7.4)">m</text><text xml:space="preserve" font-family="Helvetica-Light,Helvetica" font-size="27.8" fill="#FEFFFF" transform="matrix(1.00, 0.00, -0.00, -1.00, 191.5, 7.4)">a</text><text xml:space="preserve" font-family="Helvetica-Light,Helvetica" font-size="27.8" fill="#FEFFFF" transform="matrix(1.00, 0.00, -0.00, -1.00, 206.9, 7.4)">n</text><text xml:space="preserve" font-family="Helvetica-Light,Helvetica" font-size="27.8" fill="#FEFFFF" transform="matrix(1.00, 0.00, -0.00, -1.00, 222.4, 7.4)">y</text><text xml:space="preserve" font-family="Helvetica-Light,Helvetica" font-size="27.8" fill="#FEFFFF" transform="matrix(1.00, 0.00, -0.00, -1.00, 236.3, 7.4)"> </text><text xml:space="preserve" font-family="Helvetica-Light,Helvetica" font-size="27.8" fill="#FEFFFF" transform="matrix(1.00, 0.00, -0.00, -1.00, 244.1, 7.4)">m</text><text xml:space="preserve" font-family="Helvetica-Light,Helvetica" font-size="27.8" fill="#FEFFFF" transform="matrix(1.00, 0.00, -0.00, -1.00, 267.3, 7.4)">o</text><text xml:space="preserve" font-family="Helvetica-Light,Helvetica" font-size="27.8" fill="#FEFFFF" transform="matrix(1.00, 0.00, -0.00, -1.00, 282.8, 7.4)">r</text><text xml:space="preserve" font-family="Helvetica-Light,Helvetica" font-size="27.8" fill="#FEFFFF" transform="matrix(1.00, 0.00, -0.00, -1.00, 291.5, 7.4)">e</text><text xml:space="preserve" font-family="Helvetica-Light,Helvetica" font-size="27.8" fill="#FEFFFF" transform="matrix(1.00, 0.00, -0.00, -1.00, 307.0, 7.4)"> </text><text xml:space="preserve" font-family="Helvetica-Light,Helvetica" font-size="27.8" fill="#FEFFFF" transform="matrix(1.00, 0.00, -0.00, -1.00, 314.7, 7.4)">f</text><text xml:space="preserve" font-family="Helvetica-Light,Helvetica" font-size="27.8" fill="#FEFFFF" transform="matrix(1.00, 0.00, -0.00, -1.00, 322.5, 7.4)">e</text><text xml:space="preserve" font-family="Helvetica-Light,Helvetica" font-size="27.8" fill="#FEFFFF" transform="matrix(1.00, 0.00, -0.00, -1.00, 338.0, 7.4)">a</text><text xml:space="preserve" font-family="Helvetica-Light,Helvetica" font-size="27.8" fill="#FEFFFF" transform="matrix(1.00, 0.00, -0.00, -1.00, 353.4, 7.4)">t</text><text xml:space="preserve" font-family="Helvetica-Light,Helvetica" font-size="27.8" fill="#FEFFFF" transform="matrix(1.00, 0.00, -0.00, -1.00, 361.2, 7.4)">u</text><text xml:space="preserve" font-family="Helvetica-Light,Helvetica" font-size="27.8" fill="#FEFFFF" transform="matrix(1.00, 0.00, -0.00, -1.00, 376.7, 7.4)">r</text><text xml:space="preserve" font-family="Helvetica-Light,Helvetica" font-size="27.8" fill="#FEFFFF" transform="matrix(1.00, 0.00, -0.00, -1.00, 385.4, 7.4)">e</text><text xml:space="preserve" font-family="Helvetica-Light,Helvetica" font-size="27.8" fill="#FEFFFF" transform="matrix(1.00, 0.00, -0.00, -1.00, 400.9, 7.4)">s</text><text xml:space="preserve" font-family="Helvetica-Light,Helvetica" font-size="27.8" fill="#FEFFFF" transform="matrix(1.00, 0.00, -0.00, -1.00, 414.8, 7.4)">…</text></g></svg>