<?xml version="1.0" encoding="UTF-8" standalone="no"?><svg xmlns="http://www.w3.org/2000/svg" xmlns:xlink="http://www.w3.org/1999/xlink" clip-rule="evenodd" stroke-miterlimit="10" viewBox="0 0 869 30"><desc>SVG generated by Keynote</desc><defs></defs><g transform="matrix(1.00, 0.00, -0.00, -1.00, 0.0, 30.0)"><text xml:space="preserve" font-family="Helvetica-Light,Helvetica" font-size="20.9" fill="#FEFFFF" transform="matrix(1.00, 0.00, -0.00, -1.00, 0.3, 9.3)">•</text><text xml:space="preserve" font-family="Helvetica-Light,Helvetica" font-size="27.8" fill="#FEFFFF" transform="matrix(1.00, 0.00, -0.00, -1.00, 25.9, 7.4)">N</text><text xml:space="preserve" font-family="Helvetica-Light,Helvetica" font-size="27.8" fill="#FEFFFF" transform="matrix(1.00, 0.00, -0.00, -1.00, 46.0, 7.4)">e</text><text xml:space="preserve" font-family="Helvetica-Light,Helvetica" font-size="27.8" fill="#FEFFFF" transform="matrix(1.00, 0.00, -0.00, -1.00, 61.5, 7.4)">e</text><text xml:space="preserve" font-family="Helvetica-Light,Helvetica" font-size="27.8" fill="#FEFFFF" transform="matrix(1.00, 0.00, -0.00, -1.00, 77.0, 7.4)">d</text><text xml:space="preserve" font-family="Helvetica-Light,Helvetica" font-size="27.8" fill="#FEFFFF" transform="matrix(1.00, 0.00, -0.00, -1.00, 94.0, 7.4)"> </text><text xml:space="preserve" font-family="Helvetica-Light,Helvetica" font-size="27.8" fill="#FEFFFF" transform="matrix(1.00, 0.00, -0.00, -1.00, 101.7, 7.4)">a</text><text xml:space="preserve" font-family="Helvetica-Light,Helvetica" font-size="27.8" fill="#FEFFFF" transform="matrix(1.00, 0.00, -0.00, -1.00, 117.2, 7.4)">u</text><text xml:space="preserve" font-family="Helvetica-Light,Helvetica" font-size="27.8" fill="#FEFFFF" transform="matrix(1.00, 0.00, -0.00, -1.00, 132.7, 7.4)">t</text><text xml:space="preserve" font-family="Helvetica-Light,Helvetica" font-size="27.8" fill="#FEFFFF" transform="matrix(1.00, 0.00, -0.00, -1.00, 140.4, 7.4)">o</text><text xml:space="preserve" font-family="Helvetica-Light,Helvetica" font-size="27.8" fill="#FEFFFF" transform="matrix(1.00, 0.00, -0.00, -1.00, 155.9, 7.4)">-</text><text xml:space="preserve" font-family="Helvetica-Light,Helvetica" font-size="27.8" fill="#FEFFFF" transform="matrix(1.00, 0.00, -0.00, -1.00, 165.2, 7.4)">c</text><text xml:space="preserve" font-family="Helvetica-Light,Helvetica" font-size="27.8" fill="#FEFFFF" transform="matrix(1.00, 0.00, -0.00, -1.00, 180.7, 7.4)">o</text><text xml:space="preserve" font-family="Helvetica-Light,Helvetica" font-size="27.8" fill="#FEFFFF" transform="matrix(1.00, 0.00, -0.00, -1.00, 196.1, 7.4)">m</text><text xml:space="preserve" font-family="Helvetica-Light,Helvetica" font-size="27.8" fill="#FEFFFF" transform="matrix(1.00, 0.00, -0.00, -1.00, 219.3, 7.4)">p</text><text xml:space="preserve" font-family="Helvetica-Light,Helvetica" font-size="27.8" fill="#FEFFFF" transform="matrix(1.00, 0.00, -0.00, -1.00, 236.3, 7.4)">l</text><text xml:space="preserve" font-family="Helvetica-Light,Helvetica" font-size="27.8" fill="#FEFFFF" transform="matrix(1.00, 0.00, -0.00, -1.00, 242.5, 7.4)">e</text><text xml:space="preserve" font-family="Helvetica-Light,Helvetica" font-size="27.8" fill="#FEFFFF" transform="matrix(1.00, 0.00, -0.00, -1.00, 258.0, 7.4)">t</text><text xml:space="preserve" font-family="Helvetica-Light,Helvetica" font-size="27.8" fill="#FEFFFF" transform="matrix(1.00, 0.00, -0.00, -1.00, 265.7, 7.4)">i</text><text xml:space="preserve" font-family="Helvetica-Light,Helvetica" font-size="27.8" fill="#FEFFFF" transform="matrix(1.00, 0.00, -0.00, -1.00, 271.9, 7.4)">n</text><text xml:space="preserve" font-family="Helvetica-Light,Helvetica" font-size="27.8" fill="#FEFFFF" transform="matrix(1.00, 0.00, -0.00, -1.00, 287.4, 7.4)">g</text><text xml:space="preserve" font-family="Helvetica-Light,Helvetica" font-size="27.8" fill="#FEFFFF" transform="matrix(1.00, 0.00, -0.00, -1.00, 304.4, 7.4)"> </text><text xml:space="preserve" font-family="Helvetica-Light,Helvetica" font-size="27.8" fill="#FEFFFF" transform="matrix(1.00, 0.00, -0.00, -1.00, 312.2, 7.4)">w</text><text xml:space="preserve" font-family="Helvetica-Light,Helvetica" font-size="27.8" fill="#FEFFFF" transform="matrix(1.00, 0.00, -0.00, -1.00, 332.3, 7.4)">h</text><text xml:space="preserve" font-family="Helvetica-Light,Helvetica" font-size="27.8" fill="#FEFFFF" transform="matrix(1.00, 0.00, -0.00, -1.00, 347.7, 7.4)">i</text><text xml:space="preserve" font-family="Helvetica-Light,Helvetica" font-size="27.8" fill="#FEFFFF" transform="matrix(1.00, 0.00, -0.00, -1.00, 353.9, 7.4)">l</text><text xml:space="preserve" font-family="Helvetica-Light,Helvetica" font-size="27.8" fill="#FEFFFF" transform="matrix(1.00, 0.00, -0.00, -1.00, 360.1, 7.4)">e</text><text xml:space="preserve" font-family="Helvetica-Light,Helvetica" font-size="27.8" fill="#FEFFFF" transform="matrix(1.00, 0.00, -0.00, -1.00, 375.6, 7.4)"> </text><text xml:space="preserve" font-family="Helvetica-Light,Helvetica" font-size="27.8" fill="#FEFFFF" transform="matrix(1.00, 0.00, -0.00, -1.00, 383.3, 7.4)">s</text><text xml:space="preserve" font-family="Helvetica-Light,Helvetica" font-size="27.8" fill="#FEFFFF" transform="matrix(1.00, 0.00, -0.00, -1.00, 397.2, 7.4)">e</text><text xml:space="preserve" font-family="Helvetica-Light,Helvetica" font-size="27.8" fill="#FEFFFF" transform="matrix(1.00, 0.00, -0.00, -1.00, 412.7, 7.4)">a</text><text xml:space="preserve" font-family="Helvetica-Light,Helvetica" font-size="27.8" fill="#FEFFFF" transform="matrix(1.00, 0.00, -0.00, -1.00, 428.2, 7.4)">r</text><text xml:space="preserve" font-family="Helvetica-Light,Helvetica" font-size="27.8" fill="#FEFFFF" transform="matrix(1.00, 0.00, -0.00, -1.00, 437.0, 7.4)">c</text><text xml:space="preserve" font-family="Helvetica-Light,Helvetica" font-size="27.8" fill="#FEFFFF" transform="matrix(1.00, 0.00, -0.00, -1.00, 452.4, 7.4)">h</text><text xml:space="preserve" font-family="Helvetica-Light,Helvetica" font-size="27.8" fill="#FEFFFF" transform="matrix(1.00, 0.00, -0.00, -1.00, 467.9, 7.4)">i</text><text xml:space="preserve" font-family="Helvetica-Light,Helvetica" font-size="27.8" fill="#FEFFFF" transform="matrix(1.00, 0.00, -0.00, -1.00, 474.1, 7.4)">n</text><text xml:space="preserve" font-family="Helvetica-Light,Helvetica" font-size="27.8" fill="#FEFFFF" transform="matrix(1.00, 0.00, -0.00, -1.00, 489.6, 7.4)">g</text><text xml:space="preserve" font-family="Helvetica-Light,Helvetica" font-size="27.8" fill="#FEFFFF" transform="matrix(1.00, 0.00, -0.00, -1.00, 506.6, 7.4)">?</text><text xml:space="preserve" font-family="Helvetica-Light,Helvetica" font-size="27.8" fill="#FEFFFF" transform="matrix(1.00, 0.00, -0.00, -1.00, 520.5, 7.4)"> </text><text xml:space="preserve" font-family="Helvetica-Light,Helvetica" font-size="27.8" fill="#FEFFFF" transform="matrix(1.00, 0.00, -0.00, -1.00, 528.2, 7.4)">U</text><text xml:space="preserve" font-family="Helvetica-Light,Helvetica" font-size="27.8" fill="#FEFFFF" transform="matrix(1.00, 0.00, -0.00, -1.00, 548.3, 7.4)">s</text><text xml:space="preserve" font-family="Helvetica-Light,Helvetica" font-size="27.8" fill="#FEFFFF" transform="matrix(1.00, 0.00, -0.00, -1.00, 562.3, 7.4)">e</text><text xml:space="preserve" font-family="Helvetica-Light,Helvetica" font-size="27.8" fill="#FEFFFF" transform="matrix(1.00, 0.00, -0.00, -1.00, 577.7, 7.4)"> </text><text xml:space="preserve" font-family="Helvetica-Light,Helvetica" font-size="27.8" fill="#FEFFFF" transform="matrix(1.00, 0.00, -0.00, -1.00, 585.5, 7.4)">f</text><text xml:space="preserve" font-family="Helvetica-Light,Helvetica" font-size="27.8" fill="#FEFFFF" transform="matrix(1.00, 0.00, -0.00, -1.00, 593.2, 7.4)">a</text><text xml:space="preserve" font-family="Helvetica-Light,Helvetica" font-size="27.8" fill="#FEFFFF" transform="matrix(1.00, 0.00, -0.00, -1.00, 608.7, 7.4)">c</text><text xml:space="preserve" font-family="Helvetica-Light,Helvetica" font-size="27.8" fill="#FEFFFF" transform="matrix(1.00, 0.00, -0.00, -1.00, 624.2, 7.4)">e</text><text xml:space="preserve" font-family="Helvetica-Light,Helvetica" font-size="27.8" fill="#FEFFFF" transform="matrix(1.00, 0.00, -0.00, -1.00, 639.7, 7.4)">t</text><text xml:space="preserve" font-family="Helvetica-Light,Helvetica" font-size="27.8" fill="#FEFFFF" transform="matrix(1.00, 0.00, -0.00, -1.00, 647.4, 7.4)">s</text><text xml:space="preserve" font-family="Helvetica-Light,Helvetica" font-size="27.8" fill="#FEFFFF" transform="matrix(1.00, 0.00, -0.00, -1.00, 661.3, 7.4)"> </text><text xml:space="preserve" font-family="Helvetica-Light,Helvetica" font-size="27.8" fill="#FEFFFF" transform="matrix(1.00, 0.00, -0.00, -1.00, 669.1, 7.4)">o</text><text xml:space="preserve" font-family="Helvetica-Light,Helvetica" font-size="27.8" fill="#FEFFFF" transform="matrix(1.00, 0.00, -0.00, -1.00, 684.5, 7.4)">r</text><text xml:space="preserve" font-family="Helvetica-Light,Helvetica" font-size="27.8" fill="#FEFFFF" transform="matrix(1.00, 0.00, -0.00, -1.00, 693.8, 7.4)"> </text><text xml:space="preserve" font-family="Helvetica-Light,Helvetica" font-size="27.8" fill="#FEFFFF" transform="matrix(1.00, 0.00, -0.00, -1.00, 701.5, 7.4)">a</text><text xml:space="preserve" font-family="Helvetica-Light,Helvetica" font-size="27.8" fill="#FEFFFF" transform="matrix(1.00, 0.00, -0.00, -1.00, 717.0, 7.4)">g</text><text xml:space="preserve" font-family="Helvetica-Light,Helvetica" font-size="27.8" fill="#FEFFFF" transform="matrix(1.00, 0.00, -0.00, -1.00, 734.0, 7.4)">g</text><text xml:space="preserve" font-family="Helvetica-Light,Helvetica" font-size="27.8" fill="#FEFFFF" transform="matrix(1.00, 0.00, -0.00, -1.00, 751.0, 7.4)">r</text><text xml:space="preserve" font-family="Helvetica-Light,Helvetica" font-size="27.8" fill="#FEFFFF" transform="matrix(1.00, 0.00, -0.00, -1.00, 759.8, 7.4)">e</text><text xml:space="preserve" font-family="Helvetica-Light,Helvetica" font-size="27.8" fill="#FEFFFF" transform="matrix(1.00, 0.00, -0.00, -1.00, 775.3, 7.4)">g</text><text xml:space="preserve" font-family="Helvetica-Light,Helvetica" font-size="27.8" fill="#FEFFFF" transform="matrix(1.00, 0.00, -0.00, -1.00, 792.3, 7.4)">a</text><text xml:space="preserve" font-family="Helvetica-Light,Helvetica" font-size="27.8" fill="#FEFFFF" transform="matrix(1.00, 0.00, -0.00, -1.00, 807.8, 7.4)">t</text><text xml:space="preserve" font-family="Helvetica-Light,Helvetica" font-size="27.8" fill="#FEFFFF" transform="matrix(1.00, 0.00, -0.00, -1.00, 815.5, 7.4)">i</text><text xml:space="preserve" font-family="Helvetica-Light,Helvetica" font-size="27.8" fill="#FEFFFF" transform="matrix(1.00, 0.00, -0.00, -1.00, 821.7, 7.4)">o</text><text xml:space="preserve" font-family="Helvetica-Light,Helvetica" font-size="27.8" fill="#FEFFFF" transform="matrix(1.00, 0.00, -0.00, -1.00, 837.2, 7.4)">n</text><text xml:space="preserve" font-family="Helvetica-Light,Helvetica" font-size="27.8" fill="#FEFFFF" transform="matrix(1.00, 0.00, -0.00, -1.00, 852.7, 7.4)">s</text><text xml:space="preserve" font-family="Helvetica-Light,Helvetica" font-size="27.8" fill="#FEFFFF" transform="matrix(1.00, 0.00, -0.00, -1.00, 866.6, 7.4)"> </text></g></svg>