<?xml version="1.0" encoding="UTF-8" standalone="no"?><svg xmlns="http://www.w3.org/2000/svg" xmlns:xlink="http://www.w3.org/1999/xlink" clip-rule="evenodd" stroke-miterlimit="10" viewBox="0 0 1024 768"><desc>SVG generated by Keynote</desc><defs></defs><g transform="matrix(1.00, 0.00, -0.00, -1.00, 0.0, 768.0)"><path d="M 0.0 768.0 L 1024.0 768.0 L 1024.0 0.0 L 0.0 0.0 Z M 0.0 768.0 " fill="#000000"></path><image xlink:href="E81B45683A5673CE1C5681D4FD3CD41F.png" width="672.00" height="495.00" transform="matrix(1.00, 0.00, -0.00, -1.00, 176.0, 628.0)"></image><text xml:space="preserve" font-family="Helvetica-Light,Helvetica" font-size="54.4" fill="#FEFFFF" transform="matrix(1.00, 0.00, -0.00, -1.00, 294.4, 691.5)">A</text><text xml:space="preserve" font-family="Helvetica-Light,Helvetica" font-size="54.4" fill="#FEFFFF" transform="matrix(1.00, 0.00, -0.00, -1.00, 330.7, 691.5)"> </text><text xml:space="preserve" font-family="Helvetica-Light,Helvetica" font-size="54.4" fill="#FEFFFF" transform="matrix(1.00, 0.00, -0.00, -1.00, 345.8, 691.5)">s</text><text xml:space="preserve" font-family="Helvetica-Light,Helvetica" font-size="54.4" fill="#FEFFFF" transform="matrix(1.00, 0.00, -0.00, -1.00, 373.0, 691.5)">i</text><text xml:space="preserve" font-family="Helvetica-Light,Helvetica" font-size="54.4" fill="#FEFFFF" transform="matrix(1.00, 0.00, -0.00, -1.00, 385.1, 691.5)">m</text><text xml:space="preserve" font-family="Helvetica-Light,Helvetica" font-size="54.4" fill="#FEFFFF" transform="matrix(1.00, 0.00, -0.00, -1.00, 430.4, 691.5)">p</text><text xml:space="preserve" font-family="Helvetica-Light,Helvetica" font-size="54.4" fill="#FEFFFF" transform="matrix(1.00, 0.00, -0.00, -1.00, 463.6, 691.5)">l</text><text xml:space="preserve" font-family="Helvetica-Light,Helvetica" font-size="54.4" fill="#FEFFFF" transform="matrix(1.00, 0.00, -0.00, -1.00, 475.7, 691.5)">e</text><text xml:space="preserve" font-family="Helvetica-Light,Helvetica" font-size="54.4" fill="#FEFFFF" transform="matrix(1.00, 0.00, -0.00, -1.00, 505.9, 691.5)"> </text><text xml:space="preserve" font-family="Helvetica-Light,Helvetica" font-size="54.4" fill="#FEFFFF" transform="matrix(1.00, 0.00, -0.00, -1.00, 521.1, 691.5)">e</text><text xml:space="preserve" font-family="Helvetica-Light,Helvetica" font-size="54.4" fill="#FEFFFF" transform="matrix(1.00, 0.00, -0.00, -1.00, 551.3, 691.5)">x</text><text xml:space="preserve" font-family="Helvetica-Light,Helvetica" font-size="54.4" fill="#FEFFFF" transform="matrix(1.00, 0.00, -0.00, -1.00, 578.5, 691.5)">a</text><text xml:space="preserve" font-family="Helvetica-Light,Helvetica" font-size="54.4" fill="#FEFFFF" transform="matrix(1.00, 0.00, -0.00, -1.00, 608.8, 691.5)">m</text><text xml:space="preserve" font-family="Helvetica-Light,Helvetica" font-size="54.4" fill="#FEFFFF" transform="matrix(1.00, 0.00, -0.00, -1.00, 654.1, 691.5)">p</text><text xml:space="preserve" font-family="Helvetica-Light,Helvetica" font-size="54.4" fill="#FEFFFF" transform="matrix(1.00, 0.00, -0.00, -1.00, 687.3, 691.5)">l</text><text xml:space="preserve" font-family="Helvetica-Light,Helvetica" font-size="54.4" fill="#FEFFFF" transform="matrix(1.00, 0.00, -0.00, -1.00, 699.4, 691.5)">e</text><text xml:space="preserve" font-family="Helvetica-Light,Helvetica" font-size="54.4" fill="#FEFFFF" transform="matrix(1.00, 0.00, -0.00, -1.00, 729.6, 691.5)"> </text><text xml:space="preserve" font-family="Helvetica-Light,Helvetica" font-size="54.4" fill="#FEFFFF" transform="matrix(1.00, 0.00, -0.00, -1.00, 512.0, 625.5)"> </text></g></svg>